<svg xmlns="http://www.w3.org/2000/svg" xml:space="preserve" width="68px" height="76px" version="1.1" style="" viewBox="0 0 1366 1527" xmlns:xlink="http://www.w3.org/1999/xlink">
<defs><style type="text/css"><![CDATA[.fil0 {fill:#333}]]></style></defs>
<g>
<path class="fil0" d="M1006.723 961.119l-272.548 174.56 2.773 -315.491 273.548 -159.174 -3.773 300.105zm-643.082 -292.317l274.294 151.511 0 307.926 -276.149 -183.863 1.855 -275.574zm321.069 -258.85l294.683 177.549 -296.554 160.921 -301.574 -164.181 303.445 -174.289zm41.767 998.772l4.927 -179.421 348.374 -220.226 3.967 -382.526 208.261 -123.164 -2.038 565.299 -563.491 340.038zm-650.961 -903.744l212.394 118.211 -2.031 365.302 352.056 226.778 0 191.353 -562.415 -339.943 -0.004 -561.701zm607.323 -412.799l580.811 340.585 -205.772 113.993 -375.039 -226.155 -381.232 219.273 -183.029 -102.56 564.261 -345.136zm-682.839 317.771l0 696.294 682.839 420.758 683.565 -420.758 -3.977 -696.294 -679.59 -409.952 -682.837 409.952z"/>
</g>
</svg>
